<svg xmlns="http://www.w3.org/2000/svg" version="1.1" xmlns:xlink="http://www.w3.org/1999/xlink" xmlns:svgjs="http://svgjs.dev/svgjs" width="128" height="128" viewBox="0 0 128 128"><g transform="matrix(0.8046875,0,0,0.8046875,12.067387552013138,13.715221286211737)"><svg viewBox="0 0 96 93" data-background-color="#000000" preserveAspectRatio="xMidYMid meet" height="124" width="128" xmlns="http://www.w3.org/2000/svg" xmlns:xlink="http://www.w3.org/1999/xlink"><g id="tight-bounds" transform="matrix(1,0,0,1,0.4440600078121122,0.4094567770533786)"><svg viewBox="0 0 95.481 92.02608156375298" height="92.02608156375298" width="95.481"><g><svg viewBox="0 0 95.481 92.02608156375298" height="92.02608156375298" width="95.481"><g><svg viewBox="0 0 95.481 92.02608156375298" height="92.02608156375298" width="95.481"><g id="textblocktransform"><svg viewBox="0 0 95.481 92.02608156375298" height="92.02608156375298" width="95.481" id="textblock"><g><svg viewBox="0 0 95.481 92.02608156375298" height="92.02608156375298" width="95.481"><g><svg viewBox="0 0 95.481 92.02608156375298" height="92.02608156375298" width="95.481"><g><svg xmlns="http://www.w3.org/2000/svg" xmlns:xlink="http://www.w3.org/1999/xlink" version="1.1" x="0" y="0" viewBox="12.445 13.712994173620375 70.113 67.57600629108842" enable-background="new 0 0 95 95" xml:space="preserve" height="92.02608156375298" width="95.481" class="icon-icon-0" data-fill-palette-color="accent" id="icon-0"><path fill="#fe5e02" d="M72.35 73.999A4.28 4.28 0 0 1 73.559 76.978 4.313 4.313 0 0 1 69.239 81.288C68.036 81.288 66.946 80.788 66.165 79.986A6.7 6.7 0 0 1 65.222 79.138C63.593 77.368 42.739 51.216 42.739 51.216 41.659 49.906 38.526 49.492 36.926 49.772 35.324 50.051 26.922 40.439 23.907 36.557 21.411 33.345 15.349 26.33 13.404 21.173 12.547 19.131 12.445 17.904 12.445 16.806A3.094 3.094 0 0 1 15.545 13.713C17.115 13.713 18.026 14.428 20.386 16.678 25.972 21.362 53.672 54.612 55.414 56.753 55.414 56.753 70.481 71.982 72.281 73.918 72.29 73.93 72.304 73.942 72.314 73.956L72.329 73.97C72.336 73.979 72.34 73.989 72.35 73.999M21.507 73.771A4.2 4.2 0 0 0 20.631 74.851C20.617 74.875 20.61 74.898 20.595 74.925A4 4 0 0 0 20.327 75.487 3 3 0 0 0 20.168 76.017 4 4 0 0 0 20.121 76.245 4 4 0 0 0 20.077 76.69C20.072 76.789 20.048 76.879 20.048 76.979A4.31 4.31 0 0 0 24.36 81.289 4.28 4.28 0 0 0 27.552 79.854C27.562 79.85 27.575 79.845 27.578 79.837 28.667 79.119 45.574 58.809 45.574 58.809L41.823 54.262C41.824 54.261 23.768 71.504 21.507 73.771M82.301 22.726C82.259 22.726 82.226 22.754 82.193 22.77L82.173 22.749C82.16 22.764 82.15 22.783 82.131 22.792 82.127 22.802 82.117 22.811 82.107 22.823 76.945 28.438 68.428 37.011 68.045 36.594 67.657 36.173 80.763 21.215 80.763 21.215A0.46 0.46 0 0 0 80.915 20.879 0.47 0.47 0 0 0 80.445 20.41C80.322 20.41 80.133 20.534 80.133 20.534 80.127 20.538 80.127 20.541 80.127 20.541 80.123 20.55 80.118 20.558 80.108 20.562 80.098 20.574 66.405 34.778 65.998 34.372S78.734 19.009 78.734 19.009L78.715 18.99A0.45 0.45 0 0 0 78.9 18.642 0.47 0.47 0 0 0 78.431 18.175 0.46 0.46 0 0 0 78.095 18.322L78.09 18.312C72.927 23.92 64.335 32.569 63.951 32.15 63.562 31.726 76.787 16.655 76.787 16.655A0.46 0.46 0 0 0 76.915 16.347 0.466 0.466 0 0 0 76.451 15.878C76.28 15.878 76.043 16.091 76.043 16.091 70.885 21.701 62.294 30.355 61.91 29.934 61.521 29.505 69.573 20.174 74.736 14.571L74.712 14.55C74.732 14.514 74.756 14.486 74.756 14.441A0.27 0.27 0 0 0 74.485 14.173C74.433 14.173 74.385 14.201 74.342 14.234L74.319 14.215C70.005 16.623 61.452 25.12 59.354 27.4 55.939 31.109 56.185 36.404 56.185 36.404 56.597 38.102 55.939 40.449 54.735 41.619L49.771 46.478 52.808 49.858 57.293 44.395C58.363 43.087 60.527 42.374 62.091 42.817 62.091 42.817 66.96 43.083 70.37 39.378 72.459 37.105 80.218 27.874 82.467 23.17A0.26 0.26 0 0 0 82.558 22.981 0.257 0.257 0 0 0 82.301 22.726" data-fill-palette-color="accent"></path></svg></g></svg></g></svg></g></svg></g></svg></g></svg></g><defs></defs></svg><rect width="95.481" height="92.02608156375298" fill="none" stroke="none" visibility="hidden"></rect></g></svg></g></svg>